<svg width="400" height="255" viewBox="0 0 400 255" fill="none" xmlns="http://www.w3.org/2000/svg"
style="fill-rule:evenodd;clip-rule:evenodd;stroke-linejoin:round;stroke-miterlimit:2;">
<g clip-path="url(#clip0_6_6)">
<mask id="path-1-inside-1_6_6" fill="transparent">
<path d="M-233.331 122.04V461.04H194.669H622.669V122.04V-216.96H194.669H-233.331V122.04ZM209.969 14.44C222.869 19.34 233.369 28.24 239.969 39.84C242.169 43.84 243.369 44.94 244.569 44.44C245.469 44.14 249.569 43.34 253.769 42.74C270.369 40.44 286.869 46.34 299.769 59.04C310.669 69.84 316.669 83.14 316.669 96.94C316.669 103.74 312.669 107.04 307.469 104.44C305.469 103.44 304.569 102.04 304.169 99.24C301.769 82.94 298.869 76.14 290.769 67.94C284.469 61.64 277.069 57.84 267.869 56.04C260.469 54.54 253.669 55.14 244.469 58.14C238.369 60.14 237.569 60.24 235.469 58.84C234.169 58.04 232.369 54.94 231.269 52.14C225.269 35.44 208.769 24.04 190.469 24.04C169.769 24.04 152.369 37.74 147.669 57.74C147.069 60.64 145.769 63.54 144.969 64.24C143.869 65.14 139.669 65.54 130.769 65.54C118.669 65.54 117.869 65.64 111.369 68.74C107.569 70.54 102.669 73.44 100.369 75.24C94.9688 79.54 89.0688 88.94 86.5688 97.14C84.8688 102.74 84.0688 104.04 81.5688 105.04C79.1688 106.04 78.2688 106.04 76.2688 104.64C72.6688 102.34 72.2688 99.64 74.5688 92.24C79.9688 74.74 93.4688 60.84 110.769 55.04C114.469 53.84 121.169 52.64 126.469 52.34C133.869 51.84 135.969 51.44 136.269 50.14C136.569 49.24 138.369 45.14 140.469 41.04C146.869 27.84 160.569 16.84 175.769 12.54C184.269 10.14 201.269 11.14 209.969 14.44ZM324.169 115.94C342.269 121.94 355.769 132.84 363.369 147.54C368.869 158.14 370.969 166.44 371.069 178.04C371.169 192.64 366.869 203.44 356.569 214.54C351.669 219.74 348.469 222.04 340.869 225.84L331.369 230.54H319.269C307.769 230.54 306.869 230.44 300.369 227.34C291.069 222.94 283.469 215.44 278.869 206.14C275.269 198.94 275.169 198.24 275.169 188.14C275.169 178.64 275.469 176.94 277.969 171.94C280.969 165.74 288.269 158.34 294.269 155.24C299.769 152.44 309.069 150.74 314.569 151.54C325.369 153.04 335.869 161.24 339.069 170.74C344.969 188.04 335.069 205.04 318.269 206.74C313.369 207.24 312.869 207.04 310.869 204.54C309.669 203.04 308.669 201.14 308.669 200.34C308.669 198.04 313.369 194.04 316.269 194.04C325.469 194.04 330.769 182.34 325.569 173.14C322.269 167.24 317.369 164.54 310.269 164.64C296.169 164.74 286.969 174.94 287.869 189.54C288.669 200.74 294.369 209.74 304.069 214.84C308.669 217.24 310.269 217.54 319.169 217.54C327.869 217.54 329.869 217.14 334.969 214.84C338.269 213.24 343.069 209.74 346.269 206.64C359.569 193.24 361.969 174.34 352.669 155.44C345.069 139.84 329.869 129.04 312.669 127.04C307.169 126.34 263.669 126.04 189.169 126.24L74.1688 126.54L67.5688 128.84C54.2688 133.34 42.7688 143.34 36.8688 155.44C32.6688 164.24 31.2688 170.94 31.9688 180.74C32.5688 191.04 36.1688 199.24 43.3688 206.54C57.0688 220.44 80.1688 222.04 92.6688 209.94C104.269 198.64 105.569 181.24 95.4688 171.34C88.6688 164.64 80.2688 162.54 72.9688 165.54C67.9688 167.64 65.7688 169.74 63.5688 174.54C59.0688 184.34 63.6688 192.44 74.8688 194.44C80.6688 195.54 82.5688 201.14 78.5688 205.14C76.8688 206.84 75.5688 207.14 71.7688 206.84C63.0688 205.94 55.7688 200.94 51.3688 192.64C48.3688 186.94 48.3688 175.44 51.2688 168.94C57.3688 155.74 72.8688 148.64 87.5688 152.44C111.469 158.54 122.269 184.14 110.569 207.24C96.2688 235.64 56.1688 239.34 33.0688 214.54C22.5688 203.24 18.1688 190.74 18.9688 174.54C19.7688 157.84 25.1688 145.64 37.1688 133.44C48.7688 121.64 60.3688 115.94 76.1688 114.04C79.4688 113.64 135.069 113.34 199.669 113.44L317.169 113.54L324.169 115.94ZM139.269 141.84C142.369 143.94 142.669 147.14 142.669 186.34C142.669 224.74 142.569 225.84 140.569 228.44C138.169 231.44 134.269 231.84 131.469 229.34C129.769 227.84 129.669 225.14 129.669 185.94V144.14L131.869 142.64C134.269 140.94 137.469 140.64 139.269 141.84ZM169.569 142.74C171.669 144.54 171.669 144.74 171.469 186.54L171.169 228.44L168.569 229.94C165.169 231.84 161.269 230.74 159.869 227.54C158.169 223.94 158.169 147.84 159.769 144.74C161.969 140.64 165.969 139.84 169.569 142.74ZM199.269 142.44C201.069 143.84 201.169 145.64 201.469 184.14C201.669 213.04 201.369 225.24 200.569 227.24C199.169 230.74 195.269 231.84 191.769 229.94L189.169 228.44L188.869 186.54C188.669 144.74 188.669 144.54 190.769 142.74C193.369 140.64 196.569 140.54 199.269 142.44ZM228.469 142.64L230.669 144.14V185.74C230.669 223.04 230.469 227.54 228.969 229.24C226.569 231.94 222.169 231.54 219.769 228.44C217.769 225.84 217.669 224.74 217.669 186.34C217.669 147.14 217.969 143.94 221.069 141.84C222.869 140.64 226.069 140.94 228.469 142.64ZM258.669 143.04C260.569 144.94 260.669 146.34 260.669 186.04C260.669 225.74 260.569 227.14 258.669 229.04C257.569 230.14 255.569 231.04 254.169 231.04C252.769 231.04 250.769 230.14 249.669 229.04C247.769 227.14 247.669 225.74 247.669 186.04C247.669 146.34 247.769 144.94 249.669 143.04C250.769 141.94 252.769 141.04 254.169 141.04C255.569 141.04 257.569 141.94 258.669 143.04Z"/>
</mask>
<path d="M-233.331 122.04V461.04H194.669H622.669V122.04V-216.96H194.669H-233.331V122.04ZM209.969 14.44C222.869 19.34 233.369 28.24 239.969 39.84C242.169 43.84 243.369 44.94 244.569 44.44C245.469 44.14 249.569 43.34 253.769 42.74C270.369 40.44 286.869 46.34 299.769 59.04C310.669 69.84 316.669 83.14 316.669 96.94C316.669 103.74 312.669 107.04 307.469 104.44C305.469 103.44 304.569 102.04 304.169 99.24C301.769 82.94 298.869 76.14 290.769 67.94C284.469 61.64 277.069 57.84 267.869 56.04C260.469 54.54 253.669 55.14 244.469 58.14C238.369 60.14 237.569 60.24 235.469 58.84C234.169 58.04 232.369 54.94 231.269 52.14C225.269 35.44 208.769 24.04 190.469 24.04C169.769 24.04 152.369 37.74 147.669 57.74C147.069 60.64 145.769 63.54 144.969 64.24C143.869 65.14 139.669 65.54 130.769 65.54C118.669 65.54 117.869 65.64 111.369 68.74C107.569 70.54 102.669 73.44 100.369 75.24C94.9688 79.54 89.0688 88.94 86.5688 97.14C84.8688 102.74 84.0688 104.04 81.5688 105.04C79.1688 106.04 78.2688 106.04 76.2688 104.64C72.6688 102.34 72.2688 99.64 74.5688 92.24C79.9688 74.74 93.4688 60.84 110.769 55.04C114.469 53.84 121.169 52.64 126.469 52.34C133.869 51.84 135.969 51.44 136.269 50.14C136.569 49.24 138.369 45.14 140.469 41.04C146.869 27.84 160.569 16.84 175.769 12.54C184.269 10.14 201.269 11.14 209.969 14.44ZM324.169 115.94C342.269 121.94 355.769 132.84 363.369 147.54C368.869 158.14 370.969 166.44 371.069 178.04C371.169 192.64 366.869 203.44 356.569 214.54C351.669 219.74 348.469 222.04 340.869 225.84L331.369 230.54H319.269C307.769 230.54 306.869 230.44 300.369 227.34C291.069 222.94 283.469 215.44 278.869 206.14C275.269 198.94 275.169 198.24 275.169 188.14C275.169 178.64 275.469 176.94 277.969 171.94C280.969 165.74 288.269 158.34 294.269 155.24C299.769 152.44 309.069 150.74 314.569 151.54C325.369 153.04 335.869 161.24 339.069 170.74C344.969 188.04 335.069 205.04 318.269 206.74C313.369 207.24 312.869 207.04 310.869 204.54C309.669 203.04 308.669 201.14 308.669 200.34C308.669 198.04 313.369 194.04 316.269 194.04C325.469 194.04 330.769 182.34 325.569 173.14C322.269 167.24 317.369 164.54 310.269 164.64C296.169 164.74 286.969 174.94 287.869 189.54C288.669 200.74 294.369 209.74 304.069 214.84C308.669 217.24 310.269 217.54 319.169 217.54C327.869 217.54 329.869 217.14 334.969 214.84C338.269 213.24 343.069 209.74 346.269 206.64C359.569 193.24 361.969 174.34 352.669 155.44C345.069 139.84 329.869 129.04 312.669 127.04C307.169 126.34 263.669 126.04 189.169 126.24L74.1688 126.54L67.5688 128.84C54.2688 133.34 42.7688 143.34 36.8688 155.44C32.6688 164.24 31.2688 170.94 31.9688 180.74C32.5688 191.04 36.1688 199.24 43.3688 206.54C57.0688 220.44 80.1688 222.04 92.6688 209.94C104.269 198.64 105.569 181.24 95.4688 171.34C88.6688 164.64 80.2688 162.54 72.9688 165.54C67.9688 167.64 65.7688 169.74 63.5688 174.54C59.0688 184.34 63.6688 192.44 74.8688 194.44C80.6688 195.54 82.5688 201.14 78.5688 205.14C76.8688 206.84 75.5688 207.14 71.7688 206.84C63.0688 205.94 55.7688 200.94 51.3688 192.64C48.3688 186.94 48.3688 175.44 51.2688 168.94C57.3688 155.74 72.8688 148.64 87.5688 152.44C111.469 158.54 122.269 184.14 110.569 207.24C96.2688 235.64 56.1688 239.34 33.0688 214.54C22.5688 203.24 18.1688 190.74 18.9688 174.54C19.7688 157.84 25.1688 145.64 37.1688 133.44C48.7688 121.64 60.3688 115.94 76.1688 114.04C79.4688 113.64 135.069 113.34 199.669 113.44L317.169 113.54L324.169 115.94ZM139.269 141.84C142.369 143.94 142.669 147.14 142.669 186.34C142.669 224.74 142.569 225.84 140.569 228.44C138.169 231.44 134.269 231.84 131.469 229.34C129.769 227.84 129.669 225.14 129.669 185.94V144.14L131.869 142.64C134.269 140.94 137.469 140.64 139.269 141.84ZM169.569 142.74C171.669 144.54 171.669 144.74 171.469 186.54L171.169 228.44L168.569 229.94C165.169 231.84 161.269 230.74 159.869 227.54C158.169 223.94 158.169 147.84 159.769 144.74C161.969 140.64 165.969 139.84 169.569 142.74ZM199.269 142.44C201.069 143.84 201.169 145.64 201.469 184.14C201.669 213.04 201.369 225.24 200.569 227.24C199.169 230.74 195.269 231.84 191.769 229.94L189.169 228.44L188.869 186.54C188.669 144.74 188.669 144.54 190.769 142.74C193.369 140.64 196.569 140.54 199.269 142.44ZM228.469 142.64L230.669 144.14V185.74C230.669 223.04 230.469 227.54 228.969 229.24C226.569 231.94 222.169 231.54 219.769 228.44C217.769 225.84 217.669 224.74 217.669 186.34C217.669 147.14 217.969 143.94 221.069 141.84C222.869 140.64 226.069 140.94 228.469 142.64ZM258.669 143.04C260.569 144.94 260.669 146.34 260.669 186.04C260.669 225.74 260.569 227.14 258.669 229.04C257.569 230.14 255.569 231.04 254.169 231.04C252.769 231.04 250.769 230.14 249.669 229.04C247.769 227.14 247.669 225.74 247.669 186.04C247.669 146.34 247.769 144.94 249.669 143.04C250.769 141.94 252.769 141.04 254.169 141.04C255.569 141.04 257.569 141.94 258.669 143.04Z" stroke="white" stroke-width="8" fill="transparent"/>
</g>
<defs>
<clipPath id="clip0_6_6">
<rect width="387.981" height="254.928" fill="transparent"/>
</clipPath>
</defs>
</svg>
